<svg width="44" height="44" viewBox="0 0 44 44" fill="none" xmlns="http://www.w3.org/2000/svg">
<path d="M22 0C9.85101 0 0 9.84951 0 22C0 34.1505 9.85004 44 22 44C34.1509 44 44 34.1505 44 22C44 9.84951 34.1509 0 22 0ZM22 6.57826C26.02 6.57826 29.2776 9.83694 29.2776 13.8552C29.2776 17.8745 26.02 21.1322 22 21.1322C17.9819 21.1322 14.7243 17.8745 14.7243 13.8552C14.7243 9.83694 17.9819 6.57826 22 6.57826ZM21.9952 38.248C17.9858 38.248 14.3136 36.7878 11.4812 34.3708C10.7913 33.7823 10.3931 32.9193 10.3931 32.0138C10.3931 27.9385 13.6913 24.6769 17.7674 24.6769H26.2346C30.3116 24.6769 33.5972 27.9385 33.5972 32.0138C33.5972 32.9203 33.201 33.7813 32.5101 34.3699C29.6786 36.7878 26.0055 38.248 21.9952 38.248Z" fill="#596780"/>
</svg>
