<svg width="32" height="33" viewBox="0 0 32 33" fill="none" xmlns="http://www.w3.org/2000/svg">
<path d="M32 16.0261C32 7.18949 24.8366 0.026123 16 0.026123C7.16337 0.026123 0 7.18949 0 16.0261C0 24.0126 5.85189 30.6332 13.5037 31.8362V20.6479H9.44262V16.0261H13.5037V12.4987C13.5037 8.49192 15.8915 6.27598 19.5455 6.27598C21.3002 6.27598 23.1272 6.59255 23.1272 6.59255V10.527H21.1102C19.1204 10.527 18.5054 11.757 18.5054 13.0233V16.0261H22.9463L22.2408 20.6479H18.5144V31.8271C26.1481 30.6332 32 24.0126 32 16.0261Z" fill="#F2F2F2"/>
<path d="M22.2315 20.6481L22.937 16.0263H18.4961V13.0234C18.4961 11.7572 19.1202 10.5271 21.101 10.5271H23.1179V6.59269C23.1179 6.59269 21.2909 6.27612 19.5362 6.27612C15.8822 6.27612 13.4944 8.49206 13.4944 12.4988V16.0263H9.43335V20.6481H13.4944V31.8273C14.3084 31.9539 15.1405 32.0263 15.9907 32.0263C16.8409 32.0263 17.673 31.9629 18.4871 31.8273V20.6481H22.2315Z" fill="black"/>
</svg>
