<svg width="131" height="49" viewBox="0 0 131 49" fill="none" xmlns="http://www.w3.org/2000/svg">
<path d="M2.90099 27.6397L2.9052 27.6229L2.90942 27.6018C2.91363 27.5681 2.91784 27.5344 2.92205 27.5007V27.4923V27.4797L2.92626 27.467C2.93468 27.4249 2.9389 27.3786 2.94732 27.3323L2.95153 27.3028L2.95574 27.2733C2.95995 27.2607 2.95996 27.2438 2.96417 27.2312L2.98102 27.0795L2.99366 26.9742C3.00629 26.8731 3.01893 26.7805 3.02735 26.6878V26.6752C3.03578 26.5867 3.04841 26.5025 3.05262 26.4182C3.06105 26.3466 3.06526 26.2792 3.07368 26.2161V26.2118L3.08211 26.1487C3.08632 26.1023 3.09053 26.056 3.09474 26.0097V25.9928V25.976C3.10316 25.917 3.10316 25.8538 3.10738 25.7949V25.7864V25.7696C3.1158 25.6811 3.12001 25.5885 3.12844 25.4832V25.4747C3.13686 25.3821 3.14108 25.2894 3.14529 25.1967V25.1715V25.1336V25.0956C3.1495 25.0198 3.15371 24.9398 3.15371 24.864C3.15792 24.7587 3.16214 24.6618 3.16214 24.5607V24.5481V24.5017C3.16214 24.4301 3.16635 24.3585 3.16635 24.2869V24.2069V24.1943C3.16635 24.1311 3.16635 24.0721 3.16635 24.0089C3.16635 23.9458 3.16635 23.8784 3.16635 23.8152V23.811V23.7478C3.09895 19.1819 1.2709 14.9024 -1.98084 11.6928C-5.2368 8.47903 -9.55001 6.70996 -14.1286 6.70996C-15.1858 6.70996 -16.2304 6.80263 -17.254 6.99217C-14.8867 8.42427 -12.8355 10.3408 -11.2306 12.6448C-8.89713 15.9892 -7.66298 19.919 -7.66298 24.0089C-7.66298 28.0989 -8.89713 32.0287 -11.2306 35.3731C-13.5094 38.6375 -16.6685 41.1226 -20.3709 42.5547C-22.6539 43.4392 -25.0674 43.8899 -27.5441 43.8899C-31.1581 43.8899 -34.6289 42.9296 -37.6616 41.1352L-37.6574 41.1394L-37.6448 41.1521L-37.6321 41.1647C-37.6195 41.1815 -37.6027 41.1942 -37.59 41.2068L-37.5437 41.2532C-37.5058 41.2911 -37.4679 41.329 -37.4257 41.3669L-37.4173 41.3753L-37.4089 41.3837C-37.3457 41.4469 -37.2699 41.5185 -37.1941 41.5859L-37.1814 41.5943L-37.173 41.6028C-37.1225 41.6491 -37.0761 41.6954 -37.0256 41.7418L-37.0214 41.746L-37.0172 41.7502C-36.9287 41.8302 -36.8445 41.9102 -36.7518 41.9861L-36.7476 41.9903L-36.7434 41.9945C-36.6844 42.045 -36.6254 42.0998 -36.5665 42.1503L-36.5538 42.1587L-36.5159 42.1924H-36.5117L-36.339 42.3399L-36.3053 42.3694L-36.2969 42.3778C-36.2506 42.4157 -36.2042 42.4536 -36.1579 42.4915L-36.141 42.5041L-36.1242 42.521C-36.0821 42.5547 -36.04 42.5926 -35.9894 42.6305L-35.9726 42.6431L-35.9557 42.6558C-35.9178 42.6853 -35.8841 42.7147 -35.8504 42.7442L-35.8378 42.7527L-35.8294 42.7611C-35.703 42.8664 -35.5682 42.9675 -35.4334 43.0686C-35.4039 43.0938 -35.3744 43.1149 -35.345 43.1359C-35.3113 43.1612 -35.2776 43.1865 -35.2439 43.2118C-35.2228 43.2244 -35.206 43.237 -35.1891 43.2539L-35.1554 43.2792C-35.1007 43.3213 -35.0501 43.3592 -34.9954 43.4013L-34.9448 43.4392C-34.9195 43.4603 -34.8901 43.4771 -34.8648 43.4982L-34.8564 43.5066L-34.8437 43.515C-34.8058 43.5445 -34.7637 43.574 -34.7258 43.6035L-34.6837 43.633C-34.5868 43.7046 -34.4857 43.772 -34.3846 43.8436L-34.3762 43.8478L-34.3678 43.8562C-34.3256 43.8857 -34.2793 43.9152 -34.233 43.9447L-34.1993 43.9657L-34.0898 44.0373L-33.9718 44.1174C-33.9128 44.1553 -33.8497 44.1974 -33.7865 44.2353C-33.7233 44.2774 -33.6601 44.3153 -33.6011 44.3532H-33.4495L-33.1757 44.6144C-33.1336 44.6397 -33.0915 44.6649 -33.0494 44.6902C-32.9651 44.7407 -32.8809 44.7871 -32.8008 44.8334L-32.7924 44.8376L-32.784 44.8418C-32.7166 44.8797 -32.6534 44.9177 -32.586 44.9556C-32.2322 45.1577 -31.8742 45.3473 -31.5119 45.5242C-31.4319 45.5621 -31.3519 45.6042 -31.2761 45.6421C-31.2634 45.6506 -31.2508 45.6548 -31.2424 45.659C-31.1665 45.6927 -31.0949 45.7306 -31.0191 45.7643C-30.7917 45.8696 -30.56 45.9749 -30.3368 46.0718H-30.3326L-30.3283 46.076C-30.2736 46.1012 -30.2146 46.1265 -30.1599 46.1476C-30.143 46.156 -30.1262 46.1602 -30.1051 46.1729C-30.0293 46.2023 -29.9535 46.236 -29.8776 46.2655C-29.6923 46.3413 -29.4943 46.4172 -29.2837 46.4972L-29.2753 46.5014L-29.2669 46.5056C-29.2037 46.5309 -29.1363 46.5561 -29.0731 46.5772L-29.0647 46.5814L-29.0563 46.5856C-28.7488 46.6994 -28.4455 46.8004 -28.1549 46.8931L-28.1465 46.8973L-28.138 46.9015C-28.0791 46.9226 -28.0201 46.9394 -27.9611 46.9605H-27.9527L-27.9443 46.9647C-27.8558 46.9942 -27.7674 47.0195 -27.6789 47.049L-27.6031 47.07C-27.4978 47.0995 -27.3883 47.129 -27.283 47.1585C-27.224 47.1753 -27.1693 47.188 -27.1187 47.2048L-27.1061 47.209C-26.4448 47.3859 -25.7708 47.5376 -25.1095 47.6555L-25.1011 47.6597H-25.0927C-25.0127 47.6723 -24.9242 47.6892 -24.8189 47.706H-24.8105H-24.8063C-24.701 47.7229 -24.6083 47.7397 -24.5283 47.7482H-24.5156L-24.503 47.7524C-24.4103 47.7692 -24.3177 47.7819 -24.2208 47.7945H-24.2124C-23.1046 47.9461 -21.9757 48.0262 -20.8553 48.0262C-19.7307 48.0262 -18.6018 47.9461 -17.494 47.7945L-17.4688 47.7903C-17.3803 47.7776 -17.2919 47.765 -17.2034 47.7524L-17.1908 47.7482H-17.1823L2.87572 27.6903C2.90099 27.6608 2.90099 27.6524 2.90099 27.6397Z" fill="#404040"/>
<path d="M24.1985 24.1372C24.1985 22.5052 24.5665 21.0412 25.3025 19.7452C26.0385 18.4332 27.0385 17.4092 28.3025 16.6732C29.5825 15.9372 30.9985 15.5692 32.5505 15.5692C34.3745 15.5692 35.9665 16.0092 37.3265 16.8892C38.6865 17.7692 39.6785 19.0172 40.3025 20.6332H37.6865C37.2225 19.6252 36.5505 18.8492 35.6705 18.3052C34.8065 17.7612 33.7665 17.4892 32.5505 17.4892C31.3825 17.4892 30.3345 17.7612 29.4065 18.3052C28.4785 18.8492 27.7505 19.6252 27.2225 20.6332C26.6945 21.6252 26.4305 22.7932 26.4305 24.1372C26.4305 25.4652 26.6945 26.6332 27.2225 27.6412C27.7505 28.6332 28.4785 29.4012 29.4065 29.9452C30.3345 30.4892 31.3825 30.7612 32.5505 30.7612C33.7665 30.7612 34.8065 30.4972 35.6705 29.9692C36.5505 29.4252 37.2225 28.6492 37.6865 27.6412H40.3025C39.6785 29.2412 38.6865 30.4812 37.3265 31.3612C35.9665 32.2252 34.3745 32.6572 32.5505 32.6572C30.9985 32.6572 29.5825 32.2972 28.3025 31.5772C27.0385 30.8412 26.0385 29.8252 25.3025 28.5292C24.5665 27.2332 24.1985 25.7692 24.1985 24.1372ZM49.2896 32.7292C48.0576 32.7292 46.9376 32.4492 45.9296 31.8892C44.9376 31.3292 44.1536 30.5372 43.5776 29.5132C43.0176 28.4732 42.7376 27.2732 42.7376 25.9132C42.7376 24.5692 43.0256 23.3852 43.6016 22.3612C44.1936 21.3212 44.9936 20.5292 46.0016 19.9852C47.0096 19.4252 48.1376 19.1452 49.3856 19.1452C50.6336 19.1452 51.7616 19.4252 52.7696 19.9852C53.7776 20.5292 54.5696 21.3132 55.1456 22.3372C55.7376 23.3612 56.0336 24.5532 56.0336 25.9132C56.0336 27.2732 55.7296 28.4732 55.1216 29.5132C54.5296 30.5372 53.7216 31.3292 52.6976 31.8892C51.6736 32.4492 50.5376 32.7292 49.2896 32.7292ZM49.2896 30.8092C50.0736 30.8092 50.8096 30.6252 51.4976 30.2572C52.1856 29.8892 52.7376 29.3372 53.1536 28.6012C53.5856 27.8652 53.8016 26.9692 53.8016 25.9132C53.8016 24.8572 53.5936 23.9612 53.1776 23.2252C52.7616 22.4892 52.2176 21.9452 51.5456 21.5932C50.8736 21.2252 50.1456 21.0412 49.3616 21.0412C48.5616 21.0412 47.8256 21.2252 47.1536 21.5932C46.4976 21.9452 45.9696 22.4892 45.5696 23.2252C45.1696 23.9612 44.9696 24.8572 44.9696 25.9132C44.9696 26.9852 45.1616 27.8892 45.5456 28.6252C45.9456 29.3612 46.4736 29.9132 47.1296 30.2812C47.7856 30.6332 48.5056 30.8092 49.2896 30.8092ZM60.5371 30.7132H66.9931V32.5132H58.0411V30.7132L64.4251 21.1372H58.0891V19.3612H66.9451V21.1372L60.5371 30.7132ZM81.155 19.3612L73.235 38.7052H70.979L73.571 32.3692L68.267 19.3612H70.691L74.819 30.0172L78.899 19.3612H81.155ZM85.5344 21.8092C85.9824 21.0252 86.6384 20.3852 87.5024 19.8892C88.3664 19.3932 89.3504 19.1452 90.4544 19.1452C91.6384 19.1452 92.7024 19.4252 93.6464 19.9852C94.5904 20.5452 95.3344 21.3372 95.8784 22.3612C96.4224 23.3692 96.6944 24.5452 96.6944 25.8892C96.6944 27.2172 96.4224 28.4012 95.8784 29.4412C95.3344 30.4812 94.5824 31.2892 93.6224 31.8652C92.6784 32.4412 91.6224 32.7292 90.4544 32.7292C89.3184 32.7292 88.3184 32.4812 87.4544 31.9852C86.6064 31.4892 85.9664 30.8572 85.5344 30.0892V32.5132H83.3504V14.7532H85.5344V21.8092ZM94.4624 25.8892C94.4624 24.8972 94.2624 24.0332 93.8624 23.2972C93.4624 22.5612 92.9184 22.0012 92.2304 21.6172C91.5584 21.2332 90.8144 21.0412 89.9984 21.0412C89.1984 21.0412 88.4544 21.2412 87.7664 21.6412C87.0944 22.0252 86.5504 22.5932 86.1344 23.3452C85.7344 24.0812 85.5344 24.9372 85.5344 25.9132C85.5344 26.9052 85.7344 27.7772 86.1344 28.5292C86.5504 29.2652 87.0944 29.8332 87.7664 30.2332C88.4544 30.6172 89.1984 30.8092 89.9984 30.8092C90.8144 30.8092 91.5584 30.6172 92.2304 30.2332C92.9184 29.8332 93.4624 29.2652 93.8624 28.5292C94.2624 27.7772 94.4624 26.8972 94.4624 25.8892ZM105.977 19.1212C107.577 19.1212 108.873 19.6092 109.865 20.5852C110.857 21.5452 111.353 22.9372 111.353 24.7612V32.5132H109.193V25.0732C109.193 23.7612 108.865 22.7612 108.209 22.0732C107.553 21.3692 106.657 21.0172 105.521 21.0172C104.369 21.0172 103.449 21.3772 102.761 22.0972C102.089 22.8172 101.753 23.8652 101.753 25.2412V32.5132H99.5692V19.3612H101.753V21.2332C102.185 20.5612 102.769 20.0412 103.505 19.6732C104.257 19.3052 105.081 19.1212 105.977 19.1212ZM117.105 21.8092C117.553 21.0252 118.209 20.3852 119.073 19.8892C119.937 19.3932 120.921 19.1452 122.025 19.1452C123.209 19.1452 124.273 19.4252 125.217 19.9852C126.161 20.5452 126.905 21.3372 127.449 22.3612C127.993 23.3692 128.265 24.5452 128.265 25.8892C128.265 27.2172 127.993 28.4012 127.449 29.4412C126.905 30.4812 126.153 31.2892 125.193 31.8652C124.249 32.4412 123.193 32.7292 122.025 32.7292C120.889 32.7292 119.889 32.4812 119.025 31.9852C118.177 31.4892 117.537 30.8572 117.105 30.0892V32.5132H114.921V14.7532H117.105V21.8092ZM126.033 25.8892C126.033 24.8972 125.833 24.0332 125.433 23.2972C125.033 22.5612 124.489 22.0012 123.801 21.6172C123.129 21.2332 122.385 21.0412 121.569 21.0412C120.769 21.0412 120.025 21.2412 119.337 21.6412C118.665 22.0252 118.121 22.5932 117.705 23.3452C117.305 24.0812 117.105 24.9372 117.105 25.9132C117.105 26.9052 117.305 27.7772 117.705 28.5292C118.121 29.2652 118.665 29.8332 119.337 30.2332C120.025 30.6172 120.769 30.8092 121.569 30.8092C122.385 30.8092 123.129 30.6172 123.801 30.2332C124.489 29.8332 125.033 29.2652 125.433 28.5292C125.833 27.7772 126.033 26.8972 126.033 25.8892Z" fill="#404040"/>
</svg>
