<svg width="210" height="48" viewBox="0 0 210 48" fill="none" xmlns="http://www.w3.org/2000/svg">
<path d="M23.1292 4.1337C23.1919 4.1337 23.2598 4.13892 23.3225 4.14415C23.6936 4.15982 24.0646 4.18073 24.4513 4.21208C26.1916 4.33751 27.8743 4.59358 29.463 4.96461V0.924985C27.8377 0.512138 26.0975 0.235165 24.2893 0.104518C23.6256 0.0522585 22.9201 0.0209038 22.1937 0.00522603C22.0004 1.19728e-07 21.807 0 21.6084 0C21.6032 0 21.598 0 21.5875 0C18.1907 0 14.6998 0.449428 11.2036 1.33261C7.23195 2.33076 3.42748 3.8724 0.166504 5.79554V45.826C3.34909 44.0858 6.94452 42.6905 10.6811 41.7498C13.6337 41.0077 16.6072 40.5531 19.5181 40.4015H19.5442H19.5546C19.5808 40.4015 19.6069 40.3963 19.6278 40.3963C20.1295 40.3702 20.626 40.3545 21.1381 40.3493V36.2521C17.3807 36.2887 13.5239 36.8009 9.67244 37.7677C8.28757 38.1178 6.94452 38.515 5.68507 38.9435L4.26362 39.4295V37.9244V8.8945V8.21513L4.87505 7.92248C7.164 6.83026 9.63063 5.94709 12.2018 5.29907C14.7468 4.65629 17.2866 4.26957 19.7532 4.13892C19.8055 4.1337 19.8473 4.1337 19.8787 4.1337C20.4483 4.10757 21.0231 4.09189 21.5875 4.09189C21.7966 4.09189 22.0004 4.09711 22.2042 4.09711H22.2303C22.5334 4.10757 22.8313 4.11279 23.1292 4.1337Z" fill="#404040"/>
<path d="M33.237 8.36152C32.2964 8.36152 31.3609 8.33016 30.4621 8.26223C29.3698 8.18384 28.2829 8.05319 27.2377 7.87551C26.6001 7.76577 25.973 7.64035 25.3616 7.49925V47.0751C27.7655 47.6865 30.4098 48.0001 33.237 48.0001C36.6286 48.0001 40.1248 47.5506 43.6261 46.6727C47.5926 45.6693 51.3971 44.1329 54.6633 42.2097V2.88477C51.4807 4.62499 47.8853 6.02031 44.154 6.96098C40.4801 7.89119 36.8063 8.36152 33.237 8.36152ZM49.1447 9.04089L50.5662 8.5601V10.0599V39.0951V39.7745L49.9547 40.0671C47.671 41.1541 45.2044 42.0373 42.6228 42.6853C39.4506 43.4849 36.2942 43.8925 33.2422 43.8925C32.2964 43.8925 31.3557 43.8507 30.4464 43.7723L29.4639 43.6887V42.701V42.5912V39.9051L29.4691 39.9103V12.7304V11.5807L30.6136 11.6538C31.4445 11.7061 32.3068 11.7322 33.2422 11.7322C37.1512 11.7322 41.1595 11.2201 45.1573 10.2115C46.4952 9.88226 47.8382 9.48509 49.1447 9.04089Z" fill="#404040"/>
<path d="M81.8153 32.668C80.7113 32.668 79.7193 32.476 78.8393 32.092C77.9753 31.692 77.2953 31.148 76.7993 30.46C76.3033 29.756 76.0473 28.948 76.0313 28.036H78.3593C78.4393 28.82 78.7593 29.484 79.3193 30.028C79.8953 30.556 80.7273 30.82 81.8153 30.82C82.8553 30.82 83.6713 30.564 84.2633 30.052C84.8713 29.524 85.1753 28.852 85.1753 28.036C85.1753 27.396 84.9993 26.876 84.6473 26.476C84.2953 26.076 83.8553 25.772 83.3273 25.564C82.7993 25.356 82.0873 25.132 81.1913 24.892C80.0873 24.604 79.1993 24.316 78.5273 24.028C77.8713 23.74 77.3033 23.292 76.8233 22.684C76.3593 22.06 76.1273 21.228 76.1273 20.188C76.1273 19.276 76.3593 18.468 76.8233 17.764C77.2873 17.06 77.9353 16.516 78.7673 16.132C79.6153 15.748 80.5833 15.556 81.6713 15.556C83.2393 15.556 84.5193 15.948 85.5113 16.732C86.5193 17.516 87.0873 18.556 87.2153 19.852H84.8153C84.7353 19.212 84.3993 18.652 83.8073 18.172C83.2153 17.676 82.4313 17.428 81.4553 17.428C80.5433 17.428 79.7993 17.668 79.2233 18.148C78.6473 18.612 78.3593 19.268 78.3593 20.116C78.3593 20.724 78.5273 21.22 78.8633 21.604C79.2153 21.988 79.6393 22.284 80.1353 22.492C80.6473 22.684 81.3593 22.908 82.2713 23.164C83.3753 23.468 84.2633 23.772 84.9353 24.076C85.6073 24.364 86.1833 24.82 86.6633 25.444C87.1433 26.052 87.3833 26.884 87.3833 27.94C87.3833 28.756 87.1673 29.524 86.7353 30.244C86.3033 30.964 85.6633 31.548 84.8153 31.996C83.9673 32.444 82.9673 32.668 81.8153 32.668ZM102.597 25.42C102.597 25.836 102.573 26.276 102.525 26.74H92.0133C92.0933 28.036 92.5333 29.052 93.3333 29.788C94.1493 30.508 95.1333 30.868 96.2853 30.868C97.2293 30.868 98.0133 30.652 98.6373 30.22C99.2773 29.772 99.7253 29.18 99.9813 28.444H102.333C101.981 29.708 101.277 30.74 100.221 31.54C99.1653 32.324 97.8533 32.716 96.2853 32.716C95.0373 32.716 93.9173 32.436 92.9253 31.876C91.9493 31.316 91.1813 30.524 90.6213 29.5C90.0613 28.46 89.7813 27.26 89.7813 25.9C89.7813 24.54 90.0533 23.348 90.5973 22.324C91.1413 21.3 91.9013 20.516 92.8773 19.972C93.8693 19.412 95.0053 19.132 96.2853 19.132C97.5333 19.132 98.6373 19.404 99.5973 19.948C100.557 20.492 101.293 21.244 101.805 22.204C102.333 23.148 102.597 24.22 102.597 25.42ZM100.341 24.964C100.341 24.132 100.157 23.42 99.7893 22.828C99.4213 22.22 98.9173 21.764 98.2773 21.46C97.6533 21.14 96.9573 20.98 96.1893 20.98C95.0853 20.98 94.1413 21.332 93.3573 22.036C92.5893 22.74 92.1493 23.716 92.0373 24.964H100.341ZM107.664 21.484C108.048 20.732 108.592 20.148 109.296 19.732C110.016 19.316 110.888 19.108 111.912 19.108V21.364H111.336C108.888 21.364 107.664 22.692 107.664 25.348V32.5H105.48V19.348H107.664V21.484ZM126.433 25.42C126.433 25.836 126.409 26.276 126.361 26.74H115.849C115.929 28.036 116.369 29.052 117.169 29.788C117.985 30.508 118.969 30.868 120.121 30.868C121.065 30.868 121.849 30.652 122.473 30.22C123.113 29.772 123.561 29.18 123.817 28.444H126.169C125.817 29.708 125.113 30.74 124.057 31.54C123.001 32.324 121.689 32.716 120.121 32.716C118.873 32.716 117.753 32.436 116.761 31.876C115.785 31.316 115.017 30.524 114.457 29.5C113.897 28.46 113.617 27.26 113.617 25.9C113.617 24.54 113.889 23.348 114.433 22.324C114.977 21.3 115.737 20.516 116.713 19.972C117.705 19.412 118.841 19.132 120.121 19.132C121.369 19.132 122.473 19.404 123.433 19.948C124.393 20.492 125.129 21.244 125.641 22.204C126.169 23.148 126.433 24.22 126.433 25.42ZM124.177 24.964C124.177 24.132 123.993 23.42 123.625 22.828C123.257 22.22 122.753 21.764 122.113 21.46C121.489 21.14 120.793 20.98 120.025 20.98C118.921 20.98 117.977 21.332 117.193 22.036C116.425 22.74 115.985 23.716 115.873 24.964H124.177ZM135.724 19.108C137.324 19.108 138.62 19.596 139.612 20.572C140.604 21.532 141.1 22.924 141.1 24.748V32.5H138.94V25.06C138.94 23.748 138.612 22.748 137.956 22.06C137.3 21.356 136.404 21.004 135.268 21.004C134.116 21.004 133.196 21.364 132.508 22.084C131.836 22.804 131.5 23.852 131.5 25.228V32.5H129.316V19.348H131.5V21.22C131.932 20.548 132.516 20.028 133.252 19.66C134.004 19.292 134.828 19.108 135.724 19.108ZM143.852 25.876C143.852 24.532 144.124 23.356 144.668 22.348C145.212 21.324 145.956 20.532 146.9 19.972C147.86 19.412 148.932 19.132 150.116 19.132C151.14 19.132 152.092 19.372 152.972 19.852C153.852 20.316 154.524 20.932 154.988 21.7V14.74H157.196V32.5H154.988V30.028C154.556 30.812 153.916 31.46 153.068 31.972C152.22 32.468 151.228 32.716 150.092 32.716C148.924 32.716 147.86 32.428 146.9 31.852C145.956 31.276 145.212 30.468 144.668 29.428C144.124 28.388 143.852 27.204 143.852 25.876ZM154.988 25.9C154.988 24.908 154.788 24.044 154.388 23.308C153.988 22.572 153.444 22.012 152.756 21.628C152.084 21.228 151.34 21.028 150.524 21.028C149.708 21.028 148.964 21.22 148.292 21.604C147.62 21.988 147.084 22.548 146.684 23.284C146.284 24.02 146.084 24.884 146.084 25.876C146.084 26.884 146.284 27.764 146.684 28.516C147.084 29.252 147.62 29.82 148.292 30.22C148.964 30.604 149.708 30.796 150.524 30.796C151.34 30.796 152.084 30.604 152.756 30.22C153.444 29.82 153.988 29.252 154.388 28.516C154.788 27.764 154.988 26.892 154.988 25.9ZM162.014 17.212C161.598 17.212 161.246 17.068 160.958 16.78C160.67 16.492 160.526 16.14 160.526 15.724C160.526 15.308 160.67 14.956 160.958 14.668C161.246 14.38 161.598 14.236 162.014 14.236C162.414 14.236 162.75 14.38 163.022 14.668C163.31 14.956 163.454 15.308 163.454 15.724C163.454 16.14 163.31 16.492 163.022 16.78C162.75 17.068 162.414 17.212 162.014 17.212ZM163.07 19.348V32.5H160.886V19.348H163.07ZM168.977 21.772C169.409 21.02 170.049 20.396 170.897 19.9C171.761 19.388 172.761 19.132 173.897 19.132C175.065 19.132 176.121 19.412 177.065 19.972C178.025 20.532 178.777 21.324 179.321 22.348C179.865 23.356 180.137 24.532 180.137 25.876C180.137 27.204 179.865 28.388 179.321 29.428C178.777 30.468 178.025 31.276 177.065 31.852C176.121 32.428 175.065 32.716 173.897 32.716C172.777 32.716 171.785 32.468 170.921 31.972C170.073 31.46 169.425 30.828 168.977 30.076V38.74H166.793V19.348H168.977V21.772ZM177.905 25.876C177.905 24.884 177.705 24.02 177.305 23.284C176.905 22.548 176.361 21.988 175.673 21.604C175.001 21.22 174.257 21.028 173.441 21.028C172.641 21.028 171.897 21.228 171.209 21.628C170.537 22.012 169.993 22.58 169.577 23.332C169.177 24.068 168.977 24.924 168.977 25.9C168.977 26.892 169.177 27.764 169.577 28.516C169.993 29.252 170.537 29.82 171.209 30.22C171.897 30.604 172.641 30.796 173.441 30.796C174.257 30.796 175.001 30.604 175.673 30.22C176.361 29.82 176.905 29.252 177.305 28.516C177.705 27.764 177.905 26.884 177.905 25.876ZM184.139 17.212C183.723 17.212 183.371 17.068 183.083 16.78C182.795 16.492 182.651 16.14 182.651 15.724C182.651 15.308 182.795 14.956 183.083 14.668C183.371 14.38 183.723 14.236 184.139 14.236C184.539 14.236 184.875 14.38 185.147 14.668C185.435 14.956 185.579 15.308 185.579 15.724C185.579 16.14 185.435 16.492 185.147 16.78C184.875 17.068 184.539 17.212 184.139 17.212ZM185.195 19.348V32.5H183.011V19.348H185.195ZM191.582 21.148V28.9C191.582 29.54 191.718 29.996 191.99 30.268C192.262 30.524 192.734 30.652 193.406 30.652H195.014V32.5H193.046C191.83 32.5 190.918 32.22 190.31 31.66C189.702 31.1 189.398 30.18 189.398 28.9V21.148H187.694V19.348H189.398V16.036H191.582V19.348H195.014V21.148H191.582ZM208.988 19.348L201.068 38.692H198.812L201.404 32.356L196.1 19.348H198.524L202.652 30.004L206.732 19.348H208.988Z" fill="#404040"/>
</svg>
