<svg width="210" height="48" viewBox="0 0 210 48" fill="none" xmlns="http://www.w3.org/2000/svg">
<path d="M20.4482 48.0001L20.4438 47.9913L18.6364 44.8558L4.28256 20.0005H0.66333L16.8246 47.9913L16.8202 48.0001H16.829H20.4394H20.4482Z" fill="#404040"/>
<path d="M34.9253 48.0001L34.9209 47.9913L33.1135 44.8558L31.3016 41.7247L29.4942 38.5892L27.6824 35.4537L25.875 32.3182L18.7596 20.0005H15.1404L24.0632 35.4537L25.875 38.5892L27.6824 41.7247L29.4942 44.8558L31.3016 47.9913L31.2972 48.0001H31.306H34.9165H34.9253Z" fill="#404040"/>
<path d="M40.3522 44.8558L38.5404 41.7247L36.733 38.5892L34.9212 35.4537L33.1137 32.3182L31.3019 29.1871L29.4945 26.0516L25.9984 20.0005H22.3792L27.6827 29.1827L31.3019 35.4537L33.1137 38.5892L34.9212 41.7247L36.733 44.8558L38.5404 47.9913L38.536 48.0001H38.5448H42.1597H42.1641L42.1597 47.9913L40.3522 44.8558Z" fill="#404040"/>
<path d="M48.1542 0H44.5349L31.3245 22.8852L33.1319 26.0207L48.1542 0Z" fill="#404040"/>
<path d="M24.0675 48.0001H27.678H27.6868L27.6824 47.9913L25.8749 44.8558L24.0631 41.7247L22.2557 38.5892L11.5211 20.0005H7.90186L20.4439 41.7203L22.2557 44.8558L24.0631 47.9913L24.0587 48.0001H24.0675Z" fill="#404040"/>
<path d="M36.7496 32.2873L55.3911 0H51.7718L34.9421 29.1518L34.9597 29.187L36.7496 32.2873Z" fill="#404040"/>
<path d="M40.3689 38.5583L62.6297 0H59.0105L38.5615 35.4228L38.5791 35.4536L40.3689 38.5583Z" fill="#404040"/>
<path d="M69.8683 0H66.2491L42.1809 41.6894L42.1985 41.7246L43.9883 44.8249L69.8683 0Z" fill="#404040"/>
<path d="M104.604 15.772V32.5H102.42V24.916H93.9002V32.5H91.7162V15.772H93.9002V23.116H102.42V15.772H104.604ZM109.461 17.212C109.045 17.212 108.693 17.068 108.405 16.78C108.117 16.492 107.973 16.14 107.973 15.724C107.973 15.308 108.117 14.956 108.405 14.668C108.693 14.38 109.045 14.236 109.461 14.236C109.861 14.236 110.197 14.38 110.469 14.668C110.757 14.956 110.901 15.308 110.901 15.724C110.901 16.14 110.757 16.492 110.469 16.78C110.197 17.068 109.861 17.212 109.461 17.212ZM110.517 19.348V32.5H108.333V19.348H110.517ZM113.424 25.876C113.424 24.532 113.696 23.356 114.24 22.348C114.784 21.324 115.528 20.532 116.472 19.972C117.432 19.412 118.504 19.132 119.688 19.132C120.712 19.132 121.664 19.372 122.544 19.852C123.424 20.316 124.096 20.932 124.56 21.7V14.74H126.768V32.5H124.56V30.028C124.128 30.812 123.488 31.46 122.64 31.972C121.792 32.468 120.8 32.716 119.664 32.716C118.496 32.716 117.432 32.428 116.472 31.852C115.528 31.276 114.784 30.468 114.24 29.428C113.696 28.388 113.424 27.204 113.424 25.876ZM124.56 25.9C124.56 24.908 124.36 24.044 123.96 23.308C123.56 22.572 123.016 22.012 122.328 21.628C121.656 21.228 120.912 21.028 120.096 21.028C119.28 21.028 118.536 21.22 117.864 21.604C117.192 21.988 116.656 22.548 116.256 23.284C115.856 24.02 115.656 24.884 115.656 25.876C115.656 26.884 115.856 27.764 116.256 28.516C116.656 29.252 117.192 29.82 117.864 30.22C118.536 30.604 119.28 30.796 120.096 30.796C120.912 30.796 121.656 30.604 122.328 30.22C123.016 29.82 123.56 29.252 123.96 28.516C124.36 27.764 124.56 26.892 124.56 25.9ZM142.458 25.42C142.458 25.836 142.434 26.276 142.386 26.74H131.874C131.954 28.036 132.394 29.052 133.194 29.788C134.01 30.508 134.994 30.868 136.146 30.868C137.09 30.868 137.874 30.652 138.498 30.22C139.138 29.772 139.586 29.18 139.842 28.444H142.194C141.842 29.708 141.138 30.74 140.082 31.54C139.026 32.324 137.714 32.716 136.146 32.716C134.898 32.716 133.778 32.436 132.786 31.876C131.81 31.316 131.042 30.524 130.482 29.5C129.922 28.46 129.642 27.26 129.642 25.9C129.642 24.54 129.914 23.348 130.458 22.324C131.002 21.3 131.762 20.516 132.738 19.972C133.73 19.412 134.866 19.132 136.146 19.132C137.394 19.132 138.498 19.404 139.458 19.948C140.418 20.492 141.154 21.244 141.666 22.204C142.194 23.148 142.458 24.22 142.458 25.42ZM140.202 24.964C140.202 24.132 140.018 23.42 139.65 22.828C139.282 22.22 138.778 21.764 138.138 21.46C137.514 21.14 136.818 20.98 136.05 20.98C134.946 20.98 134.002 21.332 133.218 22.036C132.45 22.74 132.01 23.716 131.898 24.964H140.202ZM144.525 25.876C144.525 24.532 144.797 23.356 145.341 22.348C145.885 21.324 146.629 20.532 147.573 19.972C148.533 19.412 149.597 19.132 150.765 19.132C151.917 19.132 152.917 19.38 153.765 19.876C154.613 20.372 155.245 20.996 155.661 21.748V19.348H157.869V32.5H155.661V30.052C155.229 30.82 154.581 31.46 153.717 31.972C152.869 32.468 151.877 32.716 150.741 32.716C149.573 32.716 148.517 32.428 147.573 31.852C146.629 31.276 145.885 30.468 145.341 29.428C144.797 28.388 144.525 27.204 144.525 25.876ZM155.661 25.9C155.661 24.908 155.461 24.044 155.061 23.308C154.661 22.572 154.117 22.012 153.429 21.628C152.757 21.228 152.013 21.028 151.197 21.028C150.381 21.028 149.637 21.22 148.965 21.604C148.293 21.988 147.757 22.548 147.357 23.284C146.957 24.02 146.757 24.884 146.757 25.876C146.757 26.884 146.957 27.764 147.357 28.516C147.757 29.252 148.293 29.82 148.965 30.22C149.637 30.604 150.381 30.796 151.197 30.796C152.013 30.796 152.757 30.604 153.429 30.22C154.117 29.82 154.661 29.252 155.061 28.516C155.461 27.764 155.661 26.892 155.661 25.9ZM179.08 19.348L174.976 32.5H172.72L169.552 22.06L166.384 32.5H164.128L160 19.348H162.232L165.256 30.388L168.52 19.348H170.752L173.944 30.412L176.92 19.348H179.08ZM180.431 25.876C180.431 24.532 180.703 23.356 181.247 22.348C181.791 21.324 182.535 20.532 183.479 19.972C184.439 19.412 185.503 19.132 186.671 19.132C187.823 19.132 188.823 19.38 189.671 19.876C190.519 20.372 191.151 20.996 191.567 21.748V19.348H193.775V32.5H191.567V30.052C191.135 30.82 190.487 31.46 189.623 31.972C188.775 32.468 187.783 32.716 186.647 32.716C185.479 32.716 184.423 32.428 183.479 31.852C182.535 31.276 181.791 30.468 181.247 29.428C180.703 28.388 180.431 27.204 180.431 25.876ZM191.567 25.9C191.567 24.908 191.367 24.044 190.967 23.308C190.567 22.572 190.023 22.012 189.335 21.628C188.663 21.228 187.919 21.028 187.103 21.028C186.287 21.028 185.543 21.22 184.871 21.604C184.199 21.988 183.663 22.548 183.263 23.284C182.863 24.02 182.663 24.884 182.663 25.876C182.663 26.884 182.863 27.764 183.263 28.516C183.663 29.252 184.199 29.82 184.871 30.22C185.543 30.604 186.287 30.796 187.103 30.796C187.919 30.796 188.663 30.604 189.335 30.22C190.023 29.82 190.567 29.252 190.967 28.516C191.367 27.764 191.567 26.892 191.567 25.9ZM208.794 19.348L200.874 38.692H198.618L201.21 32.356L195.906 19.348H198.33L202.458 30.004L206.538 19.348H208.794Z" fill="#404040"/>
</svg>
