<svg width="116" height="48" viewBox="0 0 116 48" fill="none" xmlns="http://www.w3.org/2000/svg">
<path d="M11.165 18.7859H12.1688V19.7897V35.2277L16.7057 30.6957V14.2539H0.833984V46.5625L5.36597 42.0306V19.7897V18.7859H6.36983H11.165Z" fill="#404040"/>
<path d="M29.0401 36.6653H30.044V37.6691V42.4594V43.4633H29.0401H9.10914L4.57715 48.0001L34.576 47.9952V32.1284H20.444L15.9071 36.6653H29.0401Z" fill="#404040"/>
<path d="M44.3013 18.0501V19.054H43.2974H33.522L28.99 23.5859H48.8333V3.74268L44.3013 8.27467V18.0501Z" fill="#404040"/>
<path d="M42.8648 4.53198L47.3968 0H25.2485V22.1482L29.7805 17.6163V5.53584V4.53198H30.7844H42.8648Z" fill="#404040"/>
<path d="M83.5695 15.772V32.5H81.3855V24.916H72.8655V32.5H70.6815V15.772H72.8655V23.116H81.3855V15.772H83.5695ZM93.0347 32.716C91.8027 32.716 90.6827 32.436 89.6747 31.876C88.6827 31.316 87.8987 30.524 87.3227 29.5C86.7627 28.46 86.4827 27.26 86.4827 25.9C86.4827 24.556 86.7707 23.372 87.3467 22.348C87.9387 21.308 88.7387 20.516 89.7467 19.972C90.7547 19.412 91.8827 19.132 93.1307 19.132C94.3787 19.132 95.5067 19.412 96.5147 19.972C97.5227 20.516 98.3147 21.3 98.8907 22.324C99.4827 23.348 99.7787 24.54 99.7787 25.9C99.7787 27.26 99.4747 28.46 98.8667 29.5C98.2747 30.524 97.4667 31.316 96.4427 31.876C95.4187 32.436 94.2827 32.716 93.0347 32.716ZM93.0347 30.796C93.8187 30.796 94.5547 30.612 95.2427 30.244C95.9307 29.876 96.4827 29.324 96.8987 28.588C97.3307 27.852 97.5467 26.956 97.5467 25.9C97.5467 24.844 97.3387 23.948 96.9227 23.212C96.5067 22.476 95.9627 21.932 95.2907 21.58C94.6187 21.212 93.8907 21.028 93.1067 21.028C92.3067 21.028 91.5707 21.212 90.8987 21.58C90.2427 21.932 89.7147 22.476 89.3147 23.212C88.9147 23.948 88.7147 24.844 88.7147 25.9C88.7147 26.972 88.9067 27.876 89.2907 28.612C89.6907 29.348 90.2187 29.9 90.8747 30.268C91.5307 30.62 92.2507 30.796 93.0347 30.796ZM118.466 19.108C119.49 19.108 120.402 19.324 121.202 19.756C122.002 20.172 122.634 20.804 123.098 21.652C123.562 22.5 123.794 23.532 123.794 24.748V32.5H121.634V25.06C121.634 23.748 121.306 22.748 120.65 22.06C120.01 21.356 119.138 21.004 118.034 21.004C116.898 21.004 115.994 21.372 115.322 22.108C114.65 22.828 114.314 23.876 114.314 25.252V32.5H112.154V25.06C112.154 23.748 111.826 22.748 111.17 22.06C110.53 21.356 109.658 21.004 108.554 21.004C107.418 21.004 106.514 21.372 105.842 22.108C105.17 22.828 104.834 23.876 104.834 25.252V32.5H102.65V19.348H104.834V21.244C105.266 20.556 105.842 20.028 106.562 19.66C107.298 19.292 108.106 19.108 108.986 19.108C110.09 19.108 111.066 19.356 111.914 19.852C112.762 20.348 113.394 21.076 113.81 22.036C114.178 21.108 114.786 20.388 115.634 19.876C116.482 19.364 117.426 19.108 118.466 19.108ZM139.377 25.42C139.377 25.836 139.353 26.276 139.305 26.74H128.793C128.873 28.036 129.313 29.052 130.113 29.788C130.929 30.508 131.913 30.868 133.065 30.868C134.009 30.868 134.793 30.652 135.417 30.22C136.057 29.772 136.505 29.18 136.761 28.444H139.113C138.761 29.708 138.057 30.74 137.001 31.54C135.945 32.324 134.633 32.716 133.065 32.716C131.817 32.716 130.697 32.436 129.705 31.876C128.729 31.316 127.961 30.524 127.401 29.5C126.841 28.46 126.561 27.26 126.561 25.9C126.561 24.54 126.833 23.348 127.377 22.324C127.921 21.3 128.681 20.516 129.657 19.972C130.649 19.412 131.785 19.132 133.065 19.132C134.313 19.132 135.417 19.404 136.377 19.948C137.337 20.492 138.073 21.244 138.585 22.204C139.113 23.148 139.377 24.22 139.377 25.42ZM137.121 24.964C137.121 24.132 136.937 23.42 136.569 22.828C136.201 22.22 135.697 21.764 135.057 21.46C134.433 21.14 133.737 20.98 132.969 20.98C131.865 20.98 130.921 21.332 130.137 22.036C129.369 22.74 128.929 23.716 128.817 24.964H137.121ZM144.444 14.74V32.5H142.26V14.74H144.444ZM159.494 19.348L151.574 38.692H149.318L151.91 32.356L146.606 19.348H149.03L153.158 30.004L157.238 19.348H159.494Z" fill="#404040"/>
</svg>
