<svg width="159" height="48" viewBox="0 0 159 48" fill="none" xmlns="http://www.w3.org/2000/svg">
<path d="M26.4397 10.4318L31.4735 19.152C32.0428 19.1404 32.612 19.1365 33.1889 19.1365C34.6604 19.1365 36.1163 19.1714 37.5452 19.2333L26.4397 0L14.2383 21.1346C16.3564 20.6505 18.6061 20.2478 20.9566 19.9303L26.4397 10.4318ZM17.4019 18.8616L26.4397 3.21007L34.7146 17.545C34.2035 17.5373 33.6962 17.5334 33.1851 17.5334C32.9217 17.5334 32.6584 17.5334 32.3913 17.5373L27.8259 9.6302L26.4358 7.22168L25.0457 9.6302L19.9537 18.4511C19.094 18.575 18.2422 18.7106 17.4019 18.8616Z" fill="#404040"/>
<path d="M18.9553 47.9998C12.663 45.235 8.81396 41.5332 8.81396 37.4673C8.81396 36.1121 9.23991 34.7994 10.0415 33.5486H45.8092L39.2922 22.265C41.7704 22.0598 44.3377 21.9514 46.967 21.9514C50.51 21.9514 53.937 22.1488 57.1896 22.5167C57.0037 22.4547 56.8101 22.3967 56.6165 22.3386C56.8063 22.3967 56.9999 22.4547 57.1896 22.5167C57.4065 22.5399 57.6233 22.567 57.844 22.5941C57.2709 22.447 56.6862 22.3115 56.0938 22.1759C50.7811 20.991 44.6669 20.3134 38.1615 20.3057C38.1228 20.3057 38.0841 20.3057 38.0454 20.3057C36.5662 20.3057 35.1025 20.3405 33.6698 20.4102C33.1896 20.4334 32.7172 20.4606 32.2448 20.4877C27.7104 20.7703 23.451 21.386 19.6175 22.265C19.2844 22.3424 18.9592 22.4199 18.6339 22.4973C16.3609 23.0549 14.2506 23.7093 12.3338 24.4451C5.26701 27.1556 0.86817 30.9775 0.86817 35.2098C0.860426 40.6387 8.11309 45.3938 18.9553 47.9998ZM33.6465 22.9194L36.7714 28.3289H16.1208C20.4965 25.8894 26.5758 23.9881 33.6465 22.9194Z" fill="#404040"/>
<path d="M81.876 17.548V23.14H87.972V24.94H81.876V30.7H88.692V32.5H79.692V15.748H88.692V17.548H81.876ZM91.1807 25.876C91.1807 24.532 91.4527 23.356 91.9967 22.348C92.5407 21.324 93.2847 20.532 94.2287 19.972C95.1887 19.412 96.2527 19.132 97.4207 19.132C98.5727 19.132 99.5727 19.38 100.421 19.876C101.269 20.372 101.901 20.996 102.317 21.748V19.348H104.525V32.5H102.317V30.052C101.885 30.82 101.237 31.46 100.373 31.972C99.5247 32.468 98.5327 32.716 97.3967 32.716C96.2287 32.716 95.1727 32.428 94.2287 31.852C93.2847 31.276 92.5407 30.468 91.9967 29.428C91.4527 28.388 91.1807 27.204 91.1807 25.876ZM102.317 25.9C102.317 24.908 102.117 24.044 101.717 23.308C101.317 22.572 100.773 22.012 100.085 21.628C99.4127 21.228 98.6687 21.028 97.8527 21.028C97.0367 21.028 96.2927 21.22 95.6207 21.604C94.9487 21.988 94.4127 22.548 94.0127 23.284C93.6127 24.02 93.4127 24.884 93.4127 25.876C93.4127 26.884 93.6127 27.764 94.0127 28.516C94.4127 29.252 94.9487 29.82 95.6207 30.22C96.2927 30.604 97.0367 30.796 97.8527 30.796C98.6687 30.796 99.4127 30.604 100.085 30.22C100.773 29.82 101.317 29.252 101.717 28.516C102.117 27.764 102.317 26.892 102.317 25.9ZM110.399 21.484C110.783 20.732 111.327 20.148 112.031 19.732C112.751 19.316 113.623 19.108 114.647 19.108V21.364H114.071C111.623 21.364 110.399 22.692 110.399 25.348V32.5H108.215V19.348H110.399V21.484ZM119.833 21.148V28.9C119.833 29.54 119.969 29.996 120.241 30.268C120.513 30.524 120.985 30.652 121.657 30.652H123.265V32.5H121.297C120.081 32.5 119.169 32.22 118.561 31.66C117.953 31.1 117.649 30.18 117.649 28.9V21.148H115.945V19.348H117.649V16.036H119.833V19.348H123.265V21.148H119.833ZM132.439 19.108C133.431 19.108 134.327 19.324 135.127 19.756C135.927 20.172 136.551 20.804 136.999 21.652C137.463 22.5 137.695 23.532 137.695 24.748V32.5H135.535V25.06C135.535 23.748 135.207 22.748 134.551 22.06C133.895 21.356 132.999 21.004 131.863 21.004C130.711 21.004 129.791 21.364 129.103 22.084C128.431 22.804 128.095 23.852 128.095 25.228V32.5H125.911V14.74H128.095V21.22C128.527 20.548 129.119 20.028 129.871 19.66C130.639 19.292 131.495 19.108 132.439 19.108ZM143.446 14.74V32.5H141.262V14.74H143.446ZM158.497 19.348L150.577 38.692H148.321L150.913 32.356L145.609 19.348H148.033L152.161 30.004L156.241 19.348H158.497Z" fill="#404040"/>
</svg>
