<svg width="179" height="48" viewBox="0 0 179 48" fill="none" xmlns="http://www.w3.org/2000/svg">
<path d="M28.358 6.38818C29.1695 7.52765 29.8255 8.78365 30.296 10.1303C30.883 10.208 31.4657 10.3159 32.0311 10.4497C32.1261 10.4713 32.221 10.4972 32.316 10.5187C32.3375 10.5231 32.3634 10.5317 32.385 10.536C32.5059 10.5662 32.6267 10.6007 32.7476 10.6353C32.7476 10.6353 32.7519 10.6353 32.7519 10.6396C32.8684 10.6698 32.985 10.7043 33.0972 10.7432C33.1964 10.7734 33.2957 10.8036 33.395 10.8381C33.4986 10.8727 33.5979 10.9072 33.7014 10.9417C33.7964 10.9719 33.8913 11.0065 33.9863 11.0453C34.0813 11.0798 34.1719 11.1144 34.2669 11.1532C34.815 11.3647 35.3502 11.6064 35.8681 11.874C35.9933 11.9388 36.1142 11.9992 36.235 12.0682C36.4422 12.1805 36.6451 12.297 36.8479 12.4178C36.9342 12.4696 37.0206 12.5214 37.1026 12.5732C37.1414 12.5948 37.1846 12.6207 37.2234 12.6466C37.3141 12.7027 37.4047 12.7631 37.491 12.8236C37.5773 12.8797 37.6637 12.9358 37.7457 12.9962C38.7384 13.6738 39.6534 14.4594 40.4821 15.3269C40.5814 15.4262 40.672 15.5255 40.7627 15.6291C40.8404 15.7111 40.9137 15.7974 40.9871 15.8794C41.108 16.0175 41.2245 16.1556 41.341 16.2981C41.4144 16.3801 41.4792 16.4664 41.5482 16.5527C41.6389 16.6693 41.7295 16.7858 41.8158 16.9023C41.8978 17.0146 41.9798 17.1268 42.0575 17.2347C42.1395 17.3469 42.2172 17.4591 42.2949 17.5757C42.4503 17.8044 42.597 18.0332 42.7395 18.2706C42.8129 18.3871 42.8819 18.5079 42.951 18.6288C43.02 18.7496 43.0891 18.8705 43.1538 18.9913C43.2962 19.2546 43.4344 19.5222 43.5595 19.7898C43.6113 19.8977 43.6631 20.0056 43.7106 20.1135C43.7581 20.2215 43.8055 20.3294 43.853 20.4373C43.8962 20.5322 43.935 20.6272 43.9739 20.7264C44.0084 20.8171 44.0473 20.9034 44.0818 20.994C44.1681 21.2185 44.2544 21.4472 44.3278 21.676C44.3753 21.8098 44.4185 21.9436 44.4573 22.0774C44.4573 22.0817 44.4616 22.086 44.4616 22.0947C44.5005 22.2241 44.5393 22.3536 44.5738 22.4831C44.6817 22.8543 44.7724 23.2298 44.8544 23.6096C44.876 23.7046 44.8932 23.8039 44.9148 23.8988C44.9234 23.9549 44.9364 24.011 44.945 24.0628C44.958 24.1362 44.9709 24.2096 44.9839 24.2873C45.0011 24.3952 45.0184 24.4988 45.0357 24.6067C45.0529 24.7146 45.0702 24.8225 45.0831 24.9304C45.0875 24.9779 45.0961 25.0253 45.1004 25.0728C45.109 25.1505 45.1177 25.2325 45.1263 25.3102C45.1349 25.3879 45.1436 25.4613 45.1479 25.539C45.1608 25.6555 45.1695 25.772 45.1781 25.8886C45.1867 26.0267 45.1954 26.1648 45.204 26.3029C45.2126 26.4497 45.2169 26.5964 45.2213 26.7432C45.2256 26.8899 45.2256 27.0367 45.2256 27.1877C45.2256 36.666 37.5126 44.379 28.0343 44.379C27.8876 44.379 27.7365 44.379 27.5941 44.3746C27.4473 44.3746 27.3006 44.366 27.1538 44.3574C27.0114 44.3531 26.8646 44.3444 26.7222 44.3315H26.7049C26.5711 44.3228 26.4373 44.3099 26.3035 44.297C26.187 44.284 26.0748 44.2711 25.9583 44.2581C25.8849 44.2495 25.8158 44.2408 25.7425 44.2322C25.6389 44.2193 25.5396 44.2063 25.4403 44.189C25.4317 44.189 25.4231 44.189 25.4144 44.1847C25.3108 44.1718 25.2116 44.1545 25.1123 44.1373C25.026 44.1243 24.9397 44.107 24.8576 44.0898C24.7325 44.0682 24.6073 44.0423 24.4864 44.0164C23.8174 43.874 23.1571 43.6927 22.5139 43.4726C22.3888 43.4294 22.2636 43.3862 22.1384 43.3388C22.0176 43.2956 21.8968 43.2481 21.7716 43.2006C21.6076 43.1359 21.4435 43.0668 21.2795 42.9978C21.1759 42.9546 21.0724 42.9115 20.9731 42.864C20.8609 42.8165 20.753 42.7604 20.6408 42.7086C20.5026 42.6395 20.3602 42.5748 20.2221 42.5014C20.1099 42.441 19.9933 42.3849 19.8811 42.3202C19.7516 42.2468 19.6221 42.1777 19.4926 42.1043C19.3718 42.0353 19.2553 41.9662 19.1344 41.8928C19.1344 41.8928 19.1301 41.8929 19.1258 41.8885C18.9057 41.7591 18.6942 41.6209 18.4827 41.4785C18.4654 41.4699 18.4482 41.4569 18.4352 41.444C18.323 41.3663 18.2107 41.2886 18.0985 41.2109C17.9863 41.1332 17.8741 41.0512 17.7662 40.9692C17.654 40.8872 17.5461 40.8052 17.4382 40.7189C17.3475 40.6498 17.2612 40.5807 17.1749 40.5074C17.0367 40.3951 16.8986 40.2786 16.7605 40.1621C16.6699 40.0844 16.5793 40.0024 16.4929 39.9247V39.9204C16.3893 39.8297 16.2901 39.7348 16.1908 39.6398C16.0915 39.5449 15.9923 39.4499 15.893 39.3506C15.7031 39.1607 15.5175 38.9665 15.3362 38.768C15.2413 38.6601 15.142 38.5522 15.0513 38.4442C14.87 38.2371 14.6974 38.0299 14.5291 37.8141C14.4255 37.6846 14.3262 37.5508 14.227 37.417C14.1665 37.3393 14.1104 37.2616 14.0543 37.1796C14.037 37.1537 14.0154 37.1278 13.9982 37.1019C13.9291 37.0027 13.8601 36.9034 13.791 36.8041C13.722 36.7048 13.6615 36.6099 13.5968 36.5106C13.5061 36.3725 13.4155 36.2301 13.3292 36.0876C13.1911 35.8589 13.0573 35.6258 12.9278 35.3884C12.6774 34.9352 12.453 34.4648 12.2458 33.9813C12.1983 33.8734 12.1509 33.7612 12.1077 33.649C12.1077 33.6447 12.1034 33.6404 12.1034 33.6317C12.0689 33.5454 12.0343 33.4634 12.0041 33.3814C11.9739 33.3037 11.9437 33.226 11.9135 33.1483C11.8833 33.0663 11.8531 32.9843 11.8272 32.9023C11.784 32.7858 11.7451 32.6692 11.7063 32.5527C11.6675 32.4362 11.6286 32.3153 11.5941 32.1945C11.5898 32.1858 11.5855 32.1729 11.5855 32.1599C11.5509 32.0477 11.5164 31.9269 11.4819 31.8103C11.4473 31.6852 11.4128 31.56 11.3783 31.4348C11.2833 31.055 11.197 30.6709 11.128 30.2867C11.1064 30.1572 11.0848 30.0277 11.0632 29.8983C11.0416 29.7688 11.0244 29.6393 11.0071 29.5055C9.66045 29.0394 8.40013 28.3833 7.25635 27.5762C7.45057 38.8888 16.6828 48.0002 28.0429 48.0002C39.5239 48.0002 48.8339 38.6946 48.8339 27.2093C48.8382 15.7931 39.6966 6.54788 28.358 6.38818ZM10.9337 25.5433C10.9467 25.4181 10.9596 25.2886 10.9726 25.1634C10.9855 25.0383 11.0028 24.9088 11.02 24.7836C11.0373 24.6585 11.0546 24.5333 11.0761 24.4081C11.0934 24.283 11.1193 24.1578 11.1409 24.0369C11.2358 23.5406 11.3481 23.0485 11.4819 22.5694C11.5121 22.4529 11.5509 22.3321 11.5855 22.2112C11.6114 22.1206 11.6416 22.0256 11.6718 21.935C11.6804 21.8961 11.6934 21.853 11.7106 21.8184C11.7452 21.7148 11.7797 21.6113 11.8185 21.5077C11.8487 21.417 11.8789 21.3264 11.9178 21.2357C11.9394 21.1796 11.961 21.1235 11.9825 21.0674C12.0602 20.8646 12.1379 20.6703 12.2199 20.4718C12.3192 20.243 12.4185 20.0143 12.5307 19.7898C12.5825 19.6819 12.6343 19.574 12.6861 19.4704C12.7163 19.4014 12.7551 19.3366 12.7897 19.2676C12.8285 19.1856 12.8717 19.1079 12.9148 19.0302C12.9278 19.0043 12.9451 18.9741 12.9623 18.9482C13.0184 18.8403 13.0788 18.7367 13.1393 18.6288C13.1954 18.5338 13.2515 18.4389 13.3033 18.3439C13.3551 18.2619 13.4025 18.1799 13.4543 18.1022C13.5018 18.0288 13.5493 17.9555 13.5968 17.8778C13.7953 17.5713 14.0025 17.2692 14.2183 16.98C14.2917 16.8808 14.3651 16.7858 14.4384 16.6865C14.4945 16.6131 14.5506 16.5398 14.6111 16.4664C14.7837 16.2506 14.9607 16.0348 15.1463 15.8276C15.2197 15.7413 15.2973 15.655 15.375 15.573C15.5391 15.3917 15.7074 15.219 15.88 15.0464C15.9491 14.9773 16.0182 14.9083 16.0915 14.8392C16.1994 14.7313 16.3116 14.6234 16.4239 14.5241C16.5059 14.4464 16.5879 14.3731 16.6742 14.2997C16.8253 14.1659 16.9806 14.0364 17.1317 13.9069C17.2094 13.8422 17.2914 13.7774 17.3691 13.7127C17.7144 13.4365 18.0726 13.1732 18.4395 12.9272C18.5431 12.8538 18.651 12.7847 18.7589 12.7157C18.8452 12.6596 18.9272 12.6078 19.0136 12.556C19.0783 12.5171 19.143 12.474 19.2078 12.4394C19.3027 12.379 19.3977 12.3229 19.497 12.2711C19.6178 12.1977 19.7387 12.133 19.8595 12.0682C19.9804 11.9992 20.1055 11.9344 20.2264 11.874C20.3472 11.8093 20.4724 11.7488 20.5976 11.6884C20.6062 11.6841 20.6105 11.6841 20.6192 11.6798C20.8393 11.5719 21.0637 11.4726 21.2882 11.3733C21.4565 11.3 21.6248 11.2309 21.7975 11.1662C21.9097 11.1187 22.0219 11.0755 22.1384 11.0367C22.2377 10.9978 22.3413 10.9633 22.4406 10.9288C22.4924 10.9115 22.5442 10.8942 22.596 10.8727C22.7082 10.8381 22.8204 10.7993 22.9326 10.7648C23.0664 10.7216 23.2002 10.6828 23.3384 10.6439C23.4722 10.6051 23.6103 10.5662 23.7484 10.5317C23.8692 10.5015 23.9901 10.4713 24.1109 10.4411C24.2016 10.4195 24.2965 10.3979 24.3872 10.3806C24.426 10.372 24.4692 10.3634 24.508 10.3547C24.5771 10.3418 24.6462 10.3288 24.7195 10.3116C24.8404 10.29 24.9655 10.2641 25.0864 10.2425C25.177 10.2296 25.2633 10.2123 25.3497 10.1993C25.4446 10.1821 25.5353 10.1691 25.6302 10.1562C25.8719 10.1217 26.1136 10.0914 26.3597 10.0699C25.7554 8.83976 24.931 7.73051 23.9469 6.78959C15.729 8.43404 9.25905 14.9169 7.64481 23.1435C8.59005 24.1189 9.6993 24.939 10.9337 25.5433Z" fill="#404040"/>
<path d="M30.8974 12.3701C29.9737 12.1931 29.0242 12.0982 28.0487 12.0982C27.7466 12.0982 27.4445 12.1068 27.151 12.1241C27.4143 13.0909 27.5567 14.1095 27.5567 15.154C27.5567 21.5247 22.373 26.7083 16.0023 26.7083C14.9665 26.7083 13.9608 26.5702 13.0069 26.3113C12.994 26.5961 12.9853 26.8767 12.9853 27.1659C12.9853 28.1543 13.0803 29.1211 13.2659 30.0577C14.155 30.2217 15.0701 30.3037 16.011 30.3037C24.38 30.3037 31.165 23.5187 31.165 15.1497C31.152 14.2045 31.0614 13.2722 30.8974 12.3701ZM15.998 0C7.62899 0 0.843994 6.78499 0.843994 15.154C0.843994 19.2889 2.50139 23.0353 5.18173 25.7674C5.281 24.1143 5.55292 22.4958 5.99317 20.9333C5.00477 19.2328 4.44365 17.256 4.44365 15.154C4.44365 8.78337 9.62737 3.59967 15.998 3.59967C18.0913 3.59967 20.0595 4.15645 21.7515 5.13622C23.3139 4.69166 24.9281 4.41542 26.5812 4.31184C23.8534 1.64445 20.1156 0 15.998 0Z" fill="#404040"/>
<path d="M80.978 15.772V17.548H76.418V32.5H74.234V17.548H69.65V15.772H80.978ZM90.1944 19.108C91.1864 19.108 92.0824 19.324 92.8824 19.756C93.6824 20.172 94.3064 20.804 94.7544 21.652C95.2184 22.5 95.4504 23.532 95.4504 24.748V32.5H93.2904V25.06C93.2904 23.748 92.9624 22.748 92.3064 22.06C91.6504 21.356 90.7544 21.004 89.6184 21.004C88.4664 21.004 87.5464 21.364 86.8584 22.084C86.1864 22.804 85.8504 23.852 85.8504 25.228V32.5H83.6664V14.74H85.8504V21.22C86.2824 20.548 86.8744 20.028 87.6264 19.66C88.3944 19.292 89.2504 19.108 90.1944 19.108ZM111.018 25.42C111.018 25.836 110.994 26.276 110.946 26.74H100.434C100.514 28.036 100.954 29.052 101.754 29.788C102.57 30.508 103.554 30.868 104.706 30.868C105.65 30.868 106.434 30.652 107.058 30.22C107.698 29.772 108.146 29.18 108.402 28.444H110.754C110.402 29.708 109.698 30.74 108.642 31.54C107.586 32.324 106.274 32.716 104.706 32.716C103.458 32.716 102.338 32.436 101.346 31.876C100.37 31.316 99.6019 30.524 99.0419 29.5C98.4819 28.46 98.2019 27.26 98.2019 25.9C98.2019 24.54 98.4739 23.348 99.0179 22.324C99.5619 21.3 100.322 20.516 101.298 19.972C102.29 19.412 103.426 19.132 104.706 19.132C105.954 19.132 107.058 19.404 108.018 19.948C108.978 20.492 109.714 21.244 110.226 22.204C110.754 23.148 111.018 24.22 111.018 25.42ZM108.762 24.964C108.762 24.132 108.578 23.42 108.21 22.828C107.842 22.22 107.338 21.764 106.698 21.46C106.074 21.14 105.378 20.98 104.61 20.98C103.506 20.98 102.562 21.332 101.778 22.036C101.01 22.74 100.57 23.716 100.458 24.964H108.762ZM133.451 32.5H131.267L122.483 19.18V32.5H120.299V15.748H122.483L131.267 29.044V15.748H133.451V32.5ZM142.91 32.716C141.678 32.716 140.558 32.436 139.55 31.876C138.558 31.316 137.774 30.524 137.198 29.5C136.638 28.46 136.358 27.26 136.358 25.9C136.358 24.556 136.646 23.372 137.222 22.348C137.814 21.308 138.614 20.516 139.622 19.972C140.63 19.412 141.758 19.132 143.006 19.132C144.254 19.132 145.382 19.412 146.39 19.972C147.398 20.516 148.19 21.3 148.766 22.324C149.358 23.348 149.654 24.54 149.654 25.9C149.654 27.26 149.35 28.46 148.742 29.5C148.15 30.524 147.342 31.316 146.318 31.876C145.294 32.436 144.158 32.716 142.91 32.716ZM142.91 30.796C143.694 30.796 144.43 30.612 145.118 30.244C145.806 29.876 146.358 29.324 146.774 28.588C147.206 27.852 147.422 26.956 147.422 25.9C147.422 24.844 147.214 23.948 146.798 23.212C146.382 22.476 145.838 21.932 145.166 21.58C144.494 21.212 143.766 21.028 142.982 21.028C142.182 21.028 141.446 21.212 140.774 21.58C140.118 21.932 139.59 22.476 139.19 23.212C138.79 23.948 138.59 24.844 138.59 25.9C138.59 26.972 138.782 27.876 139.166 28.612C139.566 29.348 140.094 29.9 140.75 30.268C141.406 30.62 142.126 30.796 142.91 30.796ZM158.262 32.716C157.03 32.716 155.91 32.436 154.902 31.876C153.91 31.316 153.126 30.524 152.55 29.5C151.99 28.46 151.71 27.26 151.71 25.9C151.71 24.556 151.998 23.372 152.574 22.348C153.166 21.308 153.966 20.516 154.974 19.972C155.982 19.412 157.11 19.132 158.358 19.132C159.606 19.132 160.734 19.412 161.742 19.972C162.75 20.516 163.542 21.3 164.118 22.324C164.71 23.348 165.006 24.54 165.006 25.9C165.006 27.26 164.702 28.46 164.094 29.5C163.502 30.524 162.694 31.316 161.67 31.876C160.646 32.436 159.51 32.716 158.262 32.716ZM158.262 30.796C159.046 30.796 159.782 30.612 160.47 30.244C161.158 29.876 161.71 29.324 162.126 28.588C162.558 27.852 162.774 26.956 162.774 25.9C162.774 24.844 162.566 23.948 162.15 23.212C161.734 22.476 161.19 21.932 160.518 21.58C159.846 21.212 159.118 21.028 158.334 21.028C157.534 21.028 156.798 21.212 156.126 21.58C155.47 21.932 154.942 22.476 154.542 23.212C154.142 23.948 153.942 24.844 153.942 25.9C153.942 26.972 154.134 27.876 154.518 28.612C154.918 29.348 155.446 29.9 156.102 30.268C156.758 30.62 157.478 30.796 158.262 30.796ZM175.221 32.5L170.061 26.692V32.5H167.877V14.74H170.061V25.18L175.125 19.348H178.173L171.981 25.9L178.197 32.5H175.221Z" fill="#404040"/>
</svg>
