<svg width="44" height="44" viewBox="0 0 44 44" fill="none" xmlns="http://www.w3.org/2000/svg">
<path d="M30.1 19.2199C28.29 19.2199 27.55 17.9399 28.45 16.3699C28.97 15.4599 28.66 14.2999 27.75 13.7799L26.02 12.7899C25.23 12.3199 24.21 12.5999 23.74 13.3899L23.63 13.5799C22.73 15.1499 21.25 15.1499 20.34 13.5799L20.23 13.3899C19.78 12.5999 18.76 12.3199 17.97 12.7899L16.24 13.7799C15.33 14.2999 15.02 15.4699 15.54 16.3799C16.45 17.9399 15.71 19.2199 13.9 19.2199C12.86 19.2199 12 20.0699 12 21.1199V22.8799C12 23.9199 12.85 24.7799 13.9 24.7799C15.71 24.7799 16.45 26.0599 15.54 27.6299C15.02 28.5399 15.33 29.6999 16.24 30.2199L17.97 31.2099C18.76 31.6799 19.78 31.3999 20.25 30.6099L20.36 30.4199C21.26 28.8499 22.74 28.8499 23.65 30.4199L23.76 30.6099C24.23 31.3999 25.25 31.6799 26.04 31.2099L27.77 30.2199C28.68 29.6999 28.99 28.5299 28.47 27.6299C27.56 26.0599 28.3 24.7799 30.11 24.7799C31.15 24.7799 32.01 23.9299 32.01 22.8799V21.1199C32 20.0799 31.15 19.2199 30.1 19.2199ZM22 25.2499C20.21 25.2499 18.75 23.7899 18.75 21.9999C18.75 20.2099 20.21 18.7499 22 18.7499C23.79 18.7499 25.25 20.2099 25.25 21.9999C25.25 23.7899 23.79 25.2499 22 25.2499Z" fill="#596780"/>
<rect opacity="0.8" x="0.5" y="0.5" width="43" height="43" rx="21.5" stroke="#C3D4E9" stroke-opacity="0.4"/>
</svg>
