<svg width="16" height="16" viewBox="0 0 16 16" fill="none" xmlns="http://www.w3.org/2000/svg">
<path d="M7.55163 0.434615C7.73504 0.0629924 8.26496 0.0629931 8.44837 0.434616L10.5287 4.64983C10.6015 4.7974 10.7423 4.89968 10.9052 4.92335L15.5569 5.59929C15.967 5.65888 16.1308 6.16287 15.834 6.45213L12.468 9.73322C12.3501 9.84808 12.2964 10.0136 12.3242 10.1758L13.1188 14.8087C13.1889 15.2172 12.7601 15.5287 12.3933 15.3358L8.23267 13.1484C8.08701 13.0719 7.91299 13.0719 7.76733 13.1484L3.60667 15.3358C3.23985 15.5287 2.81114 15.2172 2.88119 14.8087L3.67581 10.1758C3.70363 10.0136 3.64985 9.84808 3.53201 9.73322L0.165966 6.45213C-0.130793 6.16286 0.0329629 5.65888 0.443073 5.59929L5.09483 4.92335C5.25769 4.89968 5.39847 4.7974 5.4713 4.64983L7.55163 0.434615Z" fill="#FFC452"/>
</svg>
