<svg width="32" height="33" viewBox="0 0 32 33" fill="none" xmlns="http://www.w3.org/2000/svg">
<path d="M16 32.0261C24.8366 32.0261 32 24.8627 32 16.0261C32 7.18957 24.8366 0.026123 16 0.026123C7.16344 0.026123 0 7.18957 0 16.0261C0 24.8627 7.16344 32.0261 16 32.0261Z" fill="#F2F2F2"/>
<path d="M24.3117 14.1809C24.1489 14.199 23.9861 14.208 23.8233 14.208C22.0234 14.208 20.3411 13.3036 19.3462 11.7931V20.0238C19.3462 23.3884 16.6238 26.1108 13.2592 26.1108C9.89456 26.1108 7.17212 23.3884 7.17212 20.0238C7.17212 16.6592 9.89456 13.9367 13.2592 13.9367C13.3858 13.9367 13.5124 13.9457 13.639 13.9548V16.9576C13.5124 16.9395 13.3948 16.9214 13.2592 16.9214C11.5407 16.9214 10.1569 18.3143 10.1569 20.0238C10.1569 21.7422 11.5497 23.1261 13.2592 23.1261C14.9777 23.1261 16.4881 21.7784 16.4881 20.0599L16.5152 6.0769H19.3824C19.6537 8.64559 21.725 10.6625 24.3027 10.8434L24.3117 14.1809Z" fill="black"/>
</svg>
