<svg width="32" height="33" viewBox="0 0 32 33" fill="none" xmlns="http://www.w3.org/2000/svg">
<path d="M16 32.0261C24.8366 32.0261 32 24.8627 32 16.0261C32 7.18956 24.8366 0.026123 16 0.026123C7.16345 0.026123 0 7.18956 0 16.0261C0 24.8627 7.16345 32.0261 16 32.0261Z" fill="#F2F2F2"/>
<path d="M24.8459 10.5451C24.2942 10.7983 23.6792 10.9521 23.0822 11.0516C23.3626 11.0064 23.7787 10.4908 23.9505 10.2828C24.2038 9.96622 24.4208 9.60443 24.5384 9.21551C24.5565 9.18838 24.5655 9.14315 24.5384 9.12507C24.5022 9.10698 24.4751 9.11602 24.448 9.13411C23.7787 9.4959 23.0913 9.74915 22.3586 9.93909C22.2953 9.95718 22.2501 9.93909 22.2139 9.90291C22.1506 9.83055 22.0964 9.76724 22.033 9.71297C21.7255 9.45067 21.3909 9.24265 21.02 9.08889C20.5316 8.8899 19.998 8.8085 19.4644 8.83564C18.9488 8.87182 18.4423 9.01653 17.9901 9.25169C17.5288 9.48685 17.1218 9.8215 16.7962 10.2195C16.4615 10.6355 16.2083 11.1239 16.0817 11.6395C15.955 12.1369 15.9731 12.6344 16.0455 13.1409C16.0545 13.2223 16.0455 13.2404 15.9731 13.2223C13.0969 12.7972 10.7182 11.7661 8.78261 9.55921C8.70121 9.45971 8.65598 9.45972 8.58363 9.56825C7.73343 10.8345 8.14948 12.8786 9.20771 13.8735C9.35242 14.0092 9.49714 14.1449 9.6509 14.2624C9.59663 14.2715 8.89115 14.1991 8.26706 13.8735C8.18566 13.8192 8.14044 13.8464 8.13139 13.9459C8.12235 14.0815 8.13139 14.2082 8.15853 14.3619C8.32133 15.6463 9.20771 16.8402 10.4287 17.3014C10.5735 17.3647 10.7363 17.419 10.89 17.4461C10.6096 17.5095 10.3292 17.5547 9.53332 17.4914C9.43383 17.4733 9.39765 17.5185 9.43383 17.618C10.0308 19.246 11.3242 19.7344 12.2919 20.0148C12.4186 20.0329 12.5542 20.0329 12.6809 20.0691C12.6718 20.0782 12.6628 20.0782 12.6537 20.0962C12.3281 20.5847 11.2156 20.9464 10.7001 21.1273C9.75943 21.4529 8.72834 21.6067 7.73343 21.5072C7.57062 21.4801 7.54349 21.4891 7.49827 21.5072C7.45304 21.5343 7.48922 21.5705 7.54349 21.6157C7.74247 21.7514 7.9505 21.869 8.15853 21.9775C8.79165 22.3122 9.45191 22.5835 10.1393 22.7735C13.7029 23.7593 17.7187 23.0358 20.3869 20.3766C22.4853 18.2873 23.2269 15.4111 23.2269 12.5259C23.2269 12.4173 23.3626 12.354 23.435 12.2907C23.9776 11.8837 24.4208 11.3862 24.8278 10.8436C24.9183 10.7169 24.9183 10.6084 24.9183 10.5632C24.9183 10.5541 24.9183 10.5451 24.9183 10.5451C24.9092 10.4999 24.9092 10.5179 24.8459 10.5451Z" fill="black"/>
</svg>
