<svg width="32" height="33" viewBox="0 0 32 33" fill="none" xmlns="http://www.w3.org/2000/svg">
<path d="M16 32.0261C24.8366 32.0261 32 24.8627 32 16.0261C32 7.18957 24.8366 0.026123 16 0.026123C7.16344 0.026123 0 7.18957 0 16.0261C0 24.8627 7.16344 32.0261 16 32.0261Z" fill="#F2F2F2"/>
<path d="M24.5659 13.738C24.5659 11.6125 22.8474 9.89404 20.7219 9.89404H10.8994C8.7739 9.89404 7.05542 11.6125 7.05542 13.738V18.3146C7.05542 20.4401 8.7739 22.1586 10.8994 22.1586H20.7219C22.8474 22.1586 24.5659 20.4401 24.5659 18.3146V13.738ZM18.7863 16.37L14.3816 18.5498C14.2097 18.6402 13.6218 18.5136 13.6218 18.3237V13.8466C13.6218 13.6476 14.2097 13.5209 14.3906 13.6204L18.6054 15.9178C18.7863 16.0173 18.9672 16.2705 18.7863 16.37Z" fill="black"/>
</svg>
